<?xml version="1.0" encoding="UTF-8"?>
<!DOCTYPE svg PUBLIC "-//W3C//DTD SVG 1.1//EN" "http://www.w3.org/Graphics/SVG/1.1/DTD/svg11.dtd">
<!-- Creator: CorelDRAW 2018 (64-Bit) -->
<svg xmlns="http://www.w3.org/2000/svg" xml:space="preserve" width="0.443685in" height="0.492228in" version="1.1" style="shape-rendering:geometricPrecision; text-rendering:geometricPrecision; image-rendering:optimizeQuality; fill-rule:evenodd; clip-rule:evenodd"
viewBox="0 0 72.49 80.43"
 xmlns:xlink="http://www.w3.org/1999/xlink">
 <defs>
  <style type="text/css">
   <![CDATA[
    .fil0 {fill:#FEFEFE}
   ]]>
  </style>
 </defs>
 <g id="Layer_x0020_1">
  <metadata id="CorelCorpID_0Corel-Layer"/>
  <g id="_2608045533456">
   <g>
    <g>
     <path class="fil0" d="M36.25 0c-5.9,0 -10.7,4.8 -10.7,10.7l0 3.23 5.53 0 0 -3.23c0,-2.85 2.32,-5.16 5.16,-5.16 2.85,0 5.17,2.32 5.17,5.16l0 3.23 5.53 0 0 -3.23c0,-5.9 -4.8,-10.7 -10.7,-10.7z"/>
    </g>
   </g>
   <g>
    <g>
     <path class="fil0" d="M43.81 67.42c0,4.12 -3.35,7.47 -7.47,7.47l-0.18 0c-4.12,0 -7.47,-3.35 -7.47,-7.47l-5.53 0c0,7.17 5.83,13.01 13.01,13.01l0.18 0c7.17,0 13.01,-5.83 13.01,-13.01l-5.53 0z"/>
    </g>
   </g>
   <g>
    <g>
     <path class="fil0" d="M72.05 66.39l-7.86 -12.23 0 -15.7c0,-15.56 -12.54,-28.22 -27.95,-28.22 -15.41,0 -27.95,12.66 -27.95,28.22l0 15.7 -7.86 12.23c-0.55,0.85 -0.59,1.93 -0.1,2.82 0.49,0.89 1.42,1.44 2.43,1.44l66.96 0c1.01,0 1.94,-0.55 2.43,-1.44 0.49,-0.89 0.45,-1.97 -0.1,-2.82zm-64.22 -1.27l5.56 -8.65c0.29,-0.45 0.44,-0.97 0.44,-1.5l0 -16.51c0,-12.51 10.05,-22.69 22.41,-22.69 12.36,0 22.41,10.18 22.41,22.69l0 16.51c0,0.53 0.15,1.05 0.44,1.5l5.56 8.65 -56.82 0z"/>
    </g>
   </g>
   <g>
   </g>
   <g>
   </g>
   <g>
   </g>
   <g>
   </g>
   <g>
   </g>
   <g>
   </g>
   <g>
   </g>
   <g>
   </g>
   <g>
   </g>
   <g>
   </g>
   <g>
   </g>
   <g>
   </g>
   <g>
   </g>
   <g>
   </g>
   <g>
   </g>
  </g>
 </g>
</svg>
