<?xml version="1.0" encoding="UTF-8"?>
<!DOCTYPE svg PUBLIC "-//W3C//DTD SVG 1.1//EN" "http://www.w3.org/Graphics/SVG/1.1/DTD/svg11.dtd">
<!-- Creator: CorelDRAW 2018 (64-Bit) -->
<svg xmlns="http://www.w3.org/2000/svg" xml:space="preserve" width="0.605717in" height="0.502252in" version="1.1" style="shape-rendering:geometricPrecision; text-rendering:geometricPrecision; image-rendering:optimizeQuality; fill-rule:evenodd; clip-rule:evenodd"
viewBox="0 0 119.92 99.43"
 xmlns:xlink="http://www.w3.org/1999/xlink">
 <defs>
  <style type="text/css">
   <![CDATA[
    .fil0 {fill:white}
   ]]>
  </style>
 </defs>
 <g id="Layer_x0020_1">
  <metadata id="CorelCorpID_0Corel-Layer"/>
  <g id="_2608045514480">
   <g>
    <g>
     <path class="fil0" d="M102.35 52.56l-11.74 0c-1.6,0 -3.14,0.22 -4.62,0.62 -2.9,-5.71 -8.83,-9.63 -15.66,-9.63l-20.75 0c-6.83,0 -12.76,3.92 -15.66,9.63 -1.47,-0.4 -3.02,-0.62 -4.62,-0.62l-11.74 0c-9.69,0 -17.57,7.88 -17.57,17.57l0 18.76c0,5.81 4.73,10.54 10.54,10.54l98.84 0c5.81,0 10.54,-4.73 10.54,-10.54l0 -18.76c0,-9.69 -7.88,-17.57 -17.57,-17.57zm-70.33 8.56l0 31.29 -21.48 0c-1.94,0 -3.51,-1.58 -3.51,-3.51l0 -18.76c0,-5.81 4.73,-10.54 10.54,-10.54l11.74 0c0.95,0 1.88,0.13 2.76,0.37 -0.02,0.38 -0.04,0.77 -0.04,1.16zm48.85 31.29l-41.83 0 0 -31.29c0,-5.81 4.73,-10.54 10.54,-10.54l20.75 0c5.81,0 10.54,4.73 10.54,10.54l0 31.29zm32.02 -3.51c0,1.94 -1.58,3.51 -3.51,3.51l-21.48 0 0 -31.29c0,-0.39 -0.02,-0.78 -0.04,-1.16 0.88,-0.24 1.8,-0.37 2.76,-0.37l11.74 0c5.81,0 10.54,4.73 10.54,10.54l0 18.76z"/>
    </g>
   </g>
   <g>
    <g>
     <path class="fil0" d="M23.43 19.39c-8.61,0 -15.61,7 -15.61,15.61 0,8.61 7,15.61 15.61,15.61 8.61,0 15.61,-7 15.61,-15.61 0,-8.61 -7,-15.61 -15.61,-15.61zm0 24.19c-4.73,0 -8.58,-3.85 -8.58,-8.58 0,-4.73 3.85,-8.58 8.58,-8.58 4.73,0 8.58,3.85 8.58,8.58 0,4.73 -3.85,8.58 -8.58,8.58z"/>
    </g>
   </g>
   <g>
    <g>
     <path class="fil0" d="M59.96 0c-11.5,0 -20.85,9.35 -20.85,20.85 0,11.5 9.35,20.85 20.85,20.85 11.5,0 20.85,-9.36 20.85,-20.85 0,-11.5 -9.35,-20.85 -20.85,-20.85zm0 34.68c-7.62,0 -13.83,-6.2 -13.83,-13.83 0,-7.62 6.2,-13.83 13.83,-13.83 7.62,0 13.83,6.2 13.83,13.83 0,7.63 -6.2,13.83 -13.83,13.83z"/>
    </g>
   </g>
   <g>
    <g>
     <path class="fil0" d="M96.48 19.39c-8.61,0 -15.61,7 -15.61,15.61 0,8.61 7,15.61 15.61,15.61 8.61,0 15.61,-7 15.61,-15.61 0,-8.61 -7,-15.61 -15.61,-15.61zm0 24.19c-4.73,0 -8.58,-3.85 -8.58,-8.58 0,-4.73 3.85,-8.58 8.58,-8.58 4.73,0 8.58,3.85 8.58,8.58 0,4.73 -3.85,8.58 -8.58,8.58z"/>
    </g>
   </g>
   <g>
   </g>
   <g>
   </g>
   <g>
   </g>
   <g>
   </g>
   <g>
   </g>
   <g>
   </g>
   <g>
   </g>
   <g>
   </g>
   <g>
   </g>
   <g>
   </g>
   <g>
   </g>
   <g>
   </g>
   <g>
   </g>
   <g>
   </g>
   <g>
   </g>
  </g>
 </g>
</svg>
