<?xml version="1.0" encoding="UTF-8"?>
<!DOCTYPE svg PUBLIC "-//W3C//DTD SVG 1.1//EN" "http://www.w3.org/Graphics/SVG/1.1/DTD/svg11.dtd">
<!-- Creator: CorelDRAW 2018 (64-Bit) -->
<svg xmlns="http://www.w3.org/2000/svg" xml:space="preserve" width="2.43654in" height="2.18908in" version="1.1" style="shape-rendering:geometricPrecision; text-rendering:geometricPrecision; image-rendering:optimizeQuality; fill-rule:evenodd; clip-rule:evenodd"
viewBox="0 0 517.89 465.29"
 xmlns:xlink="http://www.w3.org/1999/xlink">
 <defs>
  <style type="text/css">
   <![CDATA[
    .fil0 {fill:#EC268F}
    .fil1 {fill:#EC268F}
    .fil2 {fill:#FFBBC0}
   ]]>
  </style>
 </defs>
 <g id="Layer_x0020_1">
  <metadata id="CorelCorpID_0Corel-Layer"/>
  <path class="fil0" d="M-0 30.35c0,10.98 1.07,18.09 9.69,26.72 4.33,4.33 12.65,9.7 20.65,9.7l457.2 0c14.47,0 30.35,-15.88 30.35,-30.35 0,-12.08 -1.46,-18.33 -10.34,-27.08 -5.06,-4.99 -12.37,-9.33 -22.02,-9.33l-453.16 0c-17.22,0 -32.37,16.08 -32.37,30.35z"/>
  <path class="fil1" d="M-0 428.88c0,12.08 1.46,18.33 10.34,27.08 5.06,4.99 12.37,9.33 22.02,9.33l453.16 0c12.42,0 24.29,-8.7 28.7,-17.83 2.15,-4.45 3.31,-8.8 3.67,-12.96l0 -5.59c-1.52,-17.54 -17.15,-30.38 -30.35,-30.38l-457.2 0c-14.47,0 -30.35,15.88 -30.35,30.35z"/>
  <path class="fil0" d="M-0 229.61c0,12.55 1.56,18.21 10.36,27.07 5.2,5.24 12.06,9.34 22.01,9.34l269.06 0c7.96,0 15.9,-5.31 20.23,-9.1 21.93,-19.16 6.11,-57.66 -20.23,-57.66l-269.06 0c-12.76,0 -24.33,8.78 -28.7,17.83 -1.55,3.21 -3.67,8.34 -3.67,12.52z"/>
  <path class="fil2" d="M398.53 228.6c0,11.36 -0.11,17.92 9.7,27.73 4.33,4.33 12.65,9.69 20.65,9.69l56.64 0c9.96,0 16.81,-4.11 22.01,-9.34 6.38,-6.42 9.59,-13.63 10.36,-20.71l0 -6.82c-1.74,-16.09 -15.54,-29.89 -32.37,-29.89l-56.64 0c-8.51,0 -17.09,5.85 -21.64,10.73 -0.68,0.72 -1.33,1.46 -1.9,2.15 -2.99,3.62 -6.8,11.16 -6.8,16.46z"/>
 </g>
</svg>
